# xmcd
#
# Track frame offsets:
#	150
#	13689
#	29918
#	44890
#	62173
#	76232
#	91558
#	108871
#	123749
#	137866
#	151819
#	166463
#	181421
#	199551
#
# Disc length: 2882 seconds
#
# Revision: 1
# Processed by: cddbd v1.5.1PL2 Copyright (c) Steve Scherf et al.
# Submitted via: EasyCDDAExtractor 9.0.0.1
#
DISCID=bc0b400e
DTITLE=Jenny Jensen - Fri
DYEAR=1997
DGENRE=Country
TTITLE0=(Nu Må Du Pinadø) Vaske Klean Dine Sjøl
TTITLE1=Hjæmlandet
TTITLE2=Slukk Lyset Når Du Går
TTITLE3=Så Lenge Vi Har Hodet Over Vannet
TTITLE4=Siste Bussen Til Son
TTITLE5=Om Du Blir Hos Mæ Nu
TTITLE6=E` du Gla` I Mæ I Morra
TTITLE7=Barnerommet
TTITLE8=Under Stjernan
TTITLE9=Ingen Vei Tilbake
TTITLE10=Sommer
TTITLE11=Fremførr Porten Din Igjen
TTITLE12=NSB
TTITLE13=Nattradioen
EXTD=
EXTT0=
EXTT1=
EXTT2=
EXTT3=
EXTT4=
EXTT5=
EXTT6=
EXTT7=
EXTT8=
EXTT9=
EXTT10=
EXTT11=
EXTT12=
EXTT13=
PLAYORDER=
